<?xml version="1.0" standalone="no"?>
<!DOCTYPE svg PUBLIC "-//W3C//DTD SVG 20010904//EN"
 "http://www.w3.org/TR/2001/REC-SVG-20010904/DTD/svg10.dtd">
<svg version="1.0" xmlns="http://www.w3.org/2000/svg"
 width="204.000000pt" height="204.000000pt" viewBox="0 0 204.000000 204.000000"
 preserveAspectRatio="xMidYMid meet">
<metadata>
Created by potrace 1.11, written by Peter Selinger 2001-2013
</metadata>
<g transform="translate(0.000000,204.000000) scale(0.100000,-0.100000)"
fill="#000000" stroke="none">
<path d="M920 2033 c-48 -18 -50 -26 -50 -213 0 -97 -3 -211 -6 -254 l-7 -76
-46 -21 c-59 -26 -115 -80 -149 -144 l-27 -50 -3 -605 c-2 -446 0 -611 9 -627
22 -41 48 -44 396 -41 309 3 332 4 352 22 21 19 21 22 21 631 l0 612 -31 61
c-34 68 -79 111 -151 144 l-48 22 0 247 0 247 -31 26 c-28 24 -38 26 -122 25
-51 0 -99 -3 -107 -6z m4 -700 c-50 -66 -54 -80 -54 -204 l0 -109 190 0 190 0
0 -75 0 -75 -190 0 -190 0 0 -45 0 -45 190 0 190 0 0 -230 0 -230 -192 -2
-193 -3 -3 -77 -3 -78 -34 0 -35 0 0 513 c0 281 5 530 10 551 5 22 17 51 28
65 19 26 107 91 123 91 5 0 -7 -21 -27 -47z"/>
</g>
</svg>
